<?xml version="1.0" encoding="UTF-8" standalone="no"?>
<svg 
 xmlns="http://www.w3.org/2000/svg"
 xmlns:xlink="http://www.w3.org/1999/xlink"
 width="545px" height="320px">
<defs>
<linearGradient id="PSgrad_0" x1="0%" x2="0%" y1="100%" y2="0%">
  <stop offset="0%" stop-color="rgb(233,242,255)" stop-opacity="1" />
  <stop offset="100%" stop-color="rgb(200,222,255)" stop-opacity="1" />
</linearGradient>

</defs>
<path fill-rule="evenodd"  stroke="rgb(180, 210, 255)" stroke-width="2px" stroke-linecap="butt" stroke-linejoin="miter" fill="url(#PSgrad_0)"
 d="M539.625,13.500 L467.312,13.500 C466.208,13.500 465.312,12.605 465.312,11.500 L465.312,11.125 C465.312,10.020 466.208,9.125 467.312,9.125 L539.625,9.125 C540.729,9.125 541.625,10.020 541.625,11.125 L541.625,11.500 C541.625,12.605 540.729,13.500 539.625,13.500 ZM446.875,13.500 L374.562,13.500 C373.458,13.500 372.562,12.605 372.562,11.500 L372.562,11.125 C372.562,10.020 373.458,9.125 374.562,9.125 L446.875,9.125 C447.979,9.125 448.875,10.020 448.875,11.125 L448.875,11.500 C448.875,12.605 447.979,13.500 446.875,13.500 ZM354.124,13.499 L281.820,13.499 C280.716,13.499 279.820,12.603 279.820,11.499 L279.820,11.110 C279.820,10.005 280.716,9.110 281.820,9.110 L354.124,9.110 C355.229,9.110 356.124,10.005 356.124,11.110 L356.124,11.499 C356.124,12.603 355.229,13.499 354.124,13.499 ZM262.119,231.344 L4.994,231.344 C3.890,231.344 2.994,230.448 2.994,229.344 L2.994,64.063 C2.994,62.958 3.890,62.062 4.994,62.062 L262.119,62.062 C263.224,62.062 264.119,62.958 264.119,64.063 L264.119,229.344 C264.119,230.448 263.224,231.344 262.119,231.344 ZM107.412,21.220 L5.152,21.220 C4.047,21.220 3.152,20.325 3.152,19.220 L3.152,4.169 C3.152,3.065 4.047,2.169 5.152,2.169 L107.412,2.169 C108.517,2.169 109.412,3.065 109.412,4.169 L109.412,19.220 C109.412,20.325 108.517,21.220 107.412,21.220 ZM25.513,270.882 C38.064,270.882 48.238,281.049 48.238,293.592 C48.238,306.134 38.064,316.301 25.513,316.301 C12.962,316.301 2.787,306.134 2.787,293.592 C2.787,281.049 12.962,270.882 25.513,270.882 ZM66.709,278.815 L144.237,278.815 C145.341,278.815 146.237,279.710 146.237,280.815 L146.237,281.457 C146.237,282.562 145.341,283.457 144.237,283.457 L66.709,283.457 C65.604,283.457 64.709,282.562 64.709,281.457 L64.709,280.815 C64.709,279.710 65.604,278.815 66.709,278.815 ZM65.469,310.315 L144.694,310.315 C145.107,310.315 145.442,310.650 145.442,311.062 L145.442,311.068 C145.442,311.480 145.107,311.815 144.694,311.815 L65.469,311.815 C65.056,311.815 64.721,311.480 64.721,311.068 L64.721,311.062 C64.721,310.650 65.056,310.315 65.469,310.315 ZM64.847,301.694 C64.847,301.281 65.182,300.946 65.595,300.946 L156.108,300.946 C156.521,300.946 156.855,301.281 156.855,301.694 C156.855,302.106 156.521,302.441 156.108,302.441 L65.595,302.441 C65.182,302.441 64.847,302.106 64.847,301.694 ZM209.845,270.875 C222.400,270.875 232.579,281.047 232.579,293.594 C232.579,306.141 222.400,316.313 209.845,316.313 C197.289,316.313 187.110,306.141 187.110,293.594 C187.110,281.047 197.289,270.875 209.845,270.875 ZM251.048,278.813 L328.579,278.813 C329.684,278.813 330.579,279.708 330.579,280.813 L330.579,281.469 C330.579,282.573 329.684,283.469 328.579,283.469 L251.048,283.469 C249.943,283.469 249.048,282.573 249.048,281.469 L249.048,280.813 C249.048,279.708 249.943,278.813 251.048,278.813 ZM249.795,310.313 L329.019,310.313 C329.432,310.313 329.766,310.647 329.766,311.060 L329.766,311.065 C329.766,311.478 329.432,311.813 329.019,311.813 L249.795,311.813 C249.382,311.813 249.048,311.478 249.048,311.065 L249.048,311.060 C249.048,310.647 249.382,310.313 249.795,310.313 ZM249.173,301.690 L249.173,301.685 C249.173,301.272 249.507,300.937 249.920,300.937 L340.425,300.937 C340.838,300.937 341.173,301.272 341.173,301.685 L341.173,301.690 C341.173,302.103 340.838,302.438 340.425,302.438 L249.920,302.438 C249.507,302.438 249.173,302.103 249.173,301.690 ZM394.188,270.875 C406.744,270.875 416.923,281.047 416.923,293.594 C416.923,306.141 406.744,316.313 394.188,316.313 C381.632,316.313 371.454,306.141 371.454,293.594 C371.454,281.047 381.632,270.875 394.188,270.875 ZM435.391,278.813 L512.923,278.813 C514.027,278.813 514.923,279.708 514.923,280.813 L514.923,281.469 C514.923,282.573 514.027,283.469 512.923,283.469 L435.391,283.469 C434.287,283.469 433.391,282.573 433.391,281.469 L433.391,280.813 C433.391,279.708 434.287,278.813 435.391,278.813 ZM434.139,310.313 L513.363,310.313 C513.776,310.313 514.110,310.647 514.110,311.060 L514.110,311.065 C514.110,311.478 513.776,311.813 513.363,311.813 L434.139,311.813 C433.726,311.813 433.391,311.478 433.391,311.065 L433.391,311.060 C433.391,310.647 433.726,310.313 434.139,310.313 ZM433.516,301.690 L433.516,301.685 C433.516,301.272 433.851,300.937 434.264,300.937 L524.769,300.937 C525.182,300.937 525.516,301.272 525.516,301.685 L525.516,301.690 C525.516,302.103 525.182,302.438 524.769,302.438 L434.264,302.438 C433.851,302.438 433.516,302.103 433.516,301.690 ZM280.186,229.344 L280.186,64.063 C280.186,62.958 281.082,62.062 282.186,62.062 L539.311,62.062 C540.416,62.062 541.311,62.958 541.311,64.063 L541.311,229.344 C541.311,230.448 540.416,231.344 539.311,231.344 L282.186,231.344 C281.082,231.344 280.186,230.448 280.186,229.344 Z"/>
</svg>