<?xml version="1.0" encoding="UTF-8" standalone="no"?>

<svg xmlns="http://www.w3.org/2000/svg" xmlns:xlink="http://www.w3.org/1999/xlink"> <path fill-rule="evenodd" opacity="0.902" fill="rgb(255, 255, 255)" d="M78.758,40.260 L76.250,50.009 L72.863,50.009 L75.397,40.260 L69.191,15.308 L72.733,15.308 L77.026,35.115 L81.370,15.308 L84.809,15.308 L78.758,40.260 ZM55.901,18.540 L64.590,18.540 L64.590,21.772 L55.901,21.772 L55.901,40.467 L52.307,40.467 L52.307,-0.000 L65.339,-0.000 L65.339,3.180 L55.901,3.180 L55.901,18.540 ZM42.997,-0.000 L46.384,-0.000 L46.384,40.467 L42.997,40.467 L42.997,-0.000 ZM34.205,40.467 L25.931,40.467 C24.000,40.467 23.035,39.494 23.035,37.545 L23.035,18.230 C23.035,16.282 24.000,15.308 25.931,15.308 L34.205,15.308 C36.136,15.308 37.101,16.282 37.101,18.230 L37.101,27.280 L35.938,28.495 L26.371,28.495 L26.371,37.597 L33.766,37.597 L33.766,32.994 L37.101,32.994 L37.101,37.545 C37.101,39.494 36.136,40.467 34.205,40.467 ZM33.766,25.754 L33.766,18.178 L26.371,18.178 L26.371,25.754 L33.766,25.754 ZM9.718,40.467 L0.461,40.467 L0.461,-0.000 L9.718,-0.000 C11.873,-0.000 13.648,0.685 15.045,2.056 C16.441,3.426 17.139,5.180 17.139,7.318 L17.139,33.150 C17.139,35.287 16.437,37.041 15.032,38.412 C13.627,39.782 11.855,40.467 9.718,40.467 ZM13.545,7.628 C13.545,6.301 13.127,5.228 12.291,4.409 C11.455,3.590 10.373,3.180 9.046,3.180 L4.055,3.180 L4.055,37.287 L8.839,37.287 C10.235,37.287 11.369,36.886 12.239,36.084 C13.109,35.283 13.545,34.184 13.545,32.788 L13.545,7.628 Z"/> </svg>