<?xml version="1.0" encoding="UTF-8" standalone="no"?>
<svg 
 xmlns="http://www.w3.org/2000/svg"
 xmlns:xlink="http://www.w3.org/1999/xlink"
 width="134px" height="179px">
<path fill-rule="evenodd"  fill="rgb(255, 255, 255)"
 d="M123.827,158.905 L52.426,178.037 C45.574,179.874 38.546,175.836 36.736,169.083 L0.942,35.497 C-0.876,28.713 3.233,21.725 10.053,19.898 L81.453,0.766 C88.306,-1.071 95.334,2.967 97.143,9.720 L132.929,143.275 C134.746,150.059 130.638,157.046 123.827,158.905 ZM89.148,11.862 C88.499,9.439 85.989,8.034 83.574,8.681 L12.174,27.813 C9.759,28.460 8.288,30.932 8.937,33.354 L11.153,41.624 L91.364,20.134 L89.148,11.862 ZM93.452,28.056 L13.274,49.541 L37.356,139.415 L117.534,117.933 L93.452,28.056 ZM124.901,145.425 L119.647,125.816 L39.468,147.299 L44.723,166.910 C45.372,169.332 47.882,170.738 50.297,170.089 L121.665,150.966 C124.112,150.312 125.542,147.816 124.901,145.425 ZM92.038,150.700 L75.820,155.045 C73.601,155.639 71.330,154.343 70.741,152.146 C70.152,149.949 71.471,147.691 73.690,147.097 L89.909,142.751 C92.128,142.158 94.399,143.453 94.987,145.650 C95.576,147.846 94.257,150.104 92.038,150.700 Z"/>
</svg>